<svg width="19" height="20" viewBox="0 0 19 20" fill="none" xmlns="http://www.w3.org/2000/svg">
<path d="M16.18 19.96C15.58 19.96 15.0133 19.86 14.48 19.66C13.9467 19.46 13.46 19.2133 13.02 18.92C12.5933 18.64 12.08 18.2667 11.48 17.8C10.8267 17.2933 10.2733 16.9 9.82 16.62C9.38 16.34 8.92667 16.1533 8.46 16.06C7.96667 16.1667 7.48667 16.22 7.02 16.22C5.67333 16.22 4.52667 15.9067 3.58 15.28C2.63333 14.6533 1.92 13.7733 1.44 12.64C0.96 11.4933 0.72 10.1667 0.72 8.66C0.72 7.12667 1.00667 5.78 1.58 4.62C2.16667 3.46 2.96667 2.56667 3.98 1.94C4.99333 1.3 6.14 0.979999 7.42 0.979999C9.5 0.979999 11.0867 1.64 12.18 2.96C13.2733 4.26667 13.82 6.08 13.82 8.4C13.82 10.12 13.46 11.6067 12.74 12.86C12.0333 14.1133 11.0733 15.0267 9.86 15.6C10.46 15.6533 11.04 15.8 11.6 16.04C12.16 16.28 12.82 16.62 13.58 17.06C14.42 17.5133 15.1 17.8467 15.62 18.06C16.14 18.2733 16.6733 18.38 17.22 18.38C17.4467 18.38 17.6533 18.3667 17.84 18.34L18.08 19.2C17.84 19.4533 17.5533 19.64 17.22 19.76C16.8867 19.8933 16.54 19.96 16.18 19.96ZM7.24 15.16C8.53333 15.16 9.55333 14.5867 10.3 13.44C11.0467 12.28 11.42 10.6067 11.42 8.42C11.42 6.40667 11.06 4.84 10.34 3.72C9.62 2.58667 8.60667 2.02 7.3 2.02C6.00667 2.02 4.98 2.58 4.22 3.7C3.47333 4.82 3.1 6.47333 3.1 8.66C3.1 10.66 3.46 12.2467 4.18 13.42C4.91333 14.58 5.93333 15.16 7.24 15.16Z" fill="white"/>
</svg>
