<svg width="18" height="18" viewBox="0 0 18 18" fill="none" xmlns="http://www.w3.org/2000/svg">
<path d="M16.4349 2.5681H14.0549C14.1467 2.23151 14.1479 1.87665 14.0583 1.53947C13.9687 1.20229 13.7916 0.894776 13.5449 0.648097C13.167 0.277852 12.659 0.0704856 12.1299 0.0704856C11.6009 0.0704856 11.0929 0.277852 10.7149 0.648097L8.99994 2.3671L7.28994 0.648097C7.1042 0.462144 6.88362 0.314626 6.64082 0.213977C6.39803 0.113329 6.13777 0.0615234 5.87494 0.0615234C5.61211 0.0615234 5.35186 0.113329 5.10906 0.213977C4.86626 0.314626 4.64569 0.462144 4.45994 0.648097C4.21324 0.894776 4.03613 1.20229 3.94657 1.53947C3.85701 1.87665 3.85817 2.23151 3.94994 2.5681H1.56494C1.16712 2.5681 0.785586 2.72613 0.504281 3.00744C0.222977 3.28874 0.0649414 3.67027 0.0649414 4.0681V5.0681C0.0650909 5.36521 0.15424 5.65546 0.320893 5.90143C0.487546 6.1474 0.724061 6.3378 0.999941 6.4481V15.4381C1.00179 16.1006 1.26577 16.7354 1.73421 17.2038C2.20266 17.6723 2.83747 17.9363 3.49994 17.9381H14.4999C15.163 17.9381 15.7989 17.6747 16.2677 17.2059C16.7365 16.737 16.9999 16.1011 16.9999 15.4381V6.4581C17.2766 6.34546 17.5136 6.15325 17.681 5.9058C17.8483 5.65836 17.9384 5.36681 17.9399 5.0681V4.0681C17.9399 3.87069 17.901 3.67523 17.8253 3.49291C17.7496 3.3106 17.6387 3.14502 17.4988 3.00566C17.359 2.86631 17.1931 2.75593 17.0105 2.68084C16.8279 2.60575 16.6323 2.56744 16.4349 2.5681ZM5.16494 1.3571C5.3523 1.17085 5.60576 1.0663 5.86994 1.0663C6.13413 1.0663 6.38758 1.17085 6.57494 1.3571L7.78494 2.5681H5.01494C4.90091 2.37854 4.85372 2.15624 4.88091 1.93671C4.9081 1.71718 5.00811 1.5131 5.16494 1.3571ZM7.99994 16.9381H3.49994C3.10212 16.9381 2.72059 16.7801 2.43928 16.4988C2.15798 16.2175 1.99994 15.8359 1.99994 15.4381V6.5681H7.99994V16.9381ZM7.99994 5.5681H1.56494C1.43233 5.5681 1.30516 5.51542 1.21139 5.42165C1.11762 5.32788 1.06494 5.20071 1.06494 5.0681V4.0681C1.06494 3.93549 1.11762 3.80831 1.21139 3.71454C1.30516 3.62078 1.43233 3.5681 1.56494 3.5681H7.99994V5.5681ZM11.4299 1.3571C11.6019 1.1861 11.8302 1.08344 12.0723 1.06824C12.3143 1.05304 12.5537 1.12633 12.7457 1.27446C12.9378 1.42259 13.0694 1.63547 13.1162 1.87345C13.163 2.11144 13.1217 2.35831 12.9999 2.5681H10.2199L11.4299 1.3571ZM15.9999 15.4381C15.9999 15.8359 15.8419 16.2175 15.5606 16.4988C15.2793 16.7801 14.8978 16.9381 14.4999 16.9381H9.99994V6.5681H15.9999V15.4381ZM16.9399 5.0681C16.9399 5.20071 16.8873 5.32788 16.7935 5.42165C16.6997 5.51542 16.5725 5.5681 16.4399 5.5681H9.99994V3.5681H16.4399C16.5725 3.5681 16.6997 3.62078 16.7935 3.71454C16.8873 3.80831 16.9399 3.93549 16.9399 4.0681V5.0681Z" fill="white"/>
</svg>
