<svg width="34" height="34" viewBox="0 0 34 34" fill="none" xmlns="http://www.w3.org/2000/svg">
<path d="M16.6667 30C9.31667 30 3.33333 24.0167 3.33333 16.6667C3.33333 9.31667 9.31667 3.33333 16.6667 3.33333C24.0167 3.33333 30 9.31667 30 16.6667C30 24.0167 24.0167 30 16.6667 30ZM16.6667 0C14.478 0 12.3107 0.431096 10.2886 1.26867C8.26652 2.10625 6.4292 3.33391 4.88155 4.88155C1.75595 8.00716 0 12.2464 0 16.6667C0 21.0869 1.75595 25.3262 4.88155 28.4518C6.4292 29.9994 8.26652 31.2271 10.2886 32.0647C12.3107 32.9022 14.478 33.3333 16.6667 33.3333C21.0869 33.3333 25.3262 31.5774 28.4518 28.4518C31.5774 25.3262 33.3333 21.0869 33.3333 16.6667C33.3333 14.478 32.9022 12.3107 32.0647 10.2886C31.2271 8.26652 29.9994 6.4292 28.4518 4.88155C26.9041 3.33391 25.0668 2.10625 23.0447 1.26867C21.0226 0.431096 18.8554 0 16.6667 0ZM18.3333 8.33333H15V15H8.33333V18.3333H15V25H18.3333V18.3333H25V15H18.3333V8.33333Z" fill="#0F6F3C"/>
</svg>
