<svg width="27" height="26" viewBox="0 0 27 26" fill="none" xmlns="http://www.w3.org/2000/svg">
<path d="M11.9997 16.3334C11.9997 18.1734 14.985 19.6667 18.6663 19.6667C22.3477 19.6667 25.333 18.1734 25.333 16.3334M1.33301 9.66675C1.33301 11.5067 4.31834 13.0001 7.99967 13.0001C9.50101 13.0001 10.8863 12.7521 11.9997 12.3334M1.33301 14.3334C1.33301 16.1734 4.31834 17.6667 7.99967 17.6667C9.50101 17.6667 10.885 17.4187 11.9997 17.0001M18.6663 14.3334C14.985 14.3334 11.9997 12.8401 11.9997 11.0001C11.9997 9.16008 14.985 7.66675 18.6663 7.66675C22.3477 7.66675 25.333 9.16008 25.333 11.0001C25.333 12.8401 22.3477 14.3334 18.6663 14.3334Z" stroke="#FFA629" stroke-width="1.5" stroke-linecap="round" stroke-linejoin="round"/>
<path d="M1.33301 4.33325V18.9999C1.33301 20.8399 4.31834 22.3333 7.99967 22.3333C9.50101 22.3333 10.885 22.0853 11.9997 21.6666M11.9997 21.6666V10.9999M11.9997 21.6666C11.9997 23.5066 14.985 24.9999 18.6663 24.9999C22.3477 24.9999 25.333 23.5066 25.333 21.6666V10.9999M14.6663 8.33325V4.33325" stroke="#FFA629" stroke-width="1.5" stroke-linecap="round" stroke-linejoin="round"/>
<path d="M7.99967 7.66667C4.31834 7.66667 1.33301 6.17333 1.33301 4.33333C1.33301 2.49333 4.31834 1 7.99967 1C11.681 1 14.6663 2.49333 14.6663 4.33333C14.6663 6.17333 11.681 7.66667 7.99967 7.66667Z" stroke="#FFA629" stroke-width="1.5" stroke-linecap="round" stroke-linejoin="round"/>
</svg>
