<svg width="19" height="19" viewBox="0 0 19 19" fill="none" xmlns="http://www.w3.org/2000/svg">
<path d="M0 15.4605V18.5005C0 18.7805 0.22 19.0005 0.5 19.0005H3.54C3.67 19.0005 3.8 18.9505 3.89 18.8505L14.81 7.94049L11.06 4.19049L0.15 15.1005C0.0500001 15.2005 0 15.3205 0 15.4605ZM17.71 3.63049L15.37 1.29049C15.2775 1.19779 15.1676 1.12424 15.0466 1.07406C14.9257 1.02388 14.796 0.998047 14.665 0.998047C14.534 0.998047 14.4043 1.02388 14.2834 1.07406C14.1624 1.12424 14.0525 1.19779 13.96 1.29049L12.13 3.12049L15.88 6.87049L17.71 5.04049C17.8027 4.94798 17.8762 4.83809 17.9264 4.71712C17.9766 4.59614 18.0024 4.46646 18.0024 4.33549C18.0024 4.20452 17.9766 4.07484 17.9264 3.95387C17.8762 3.83289 17.8027 3.723 17.71 3.63049Z" fill="black"/>
</svg>
