<svg width="26" height="27" viewBox="0 0 26 27" fill="none" xmlns="http://www.w3.org/2000/svg">
<g clip-path="url(#clip0_337_183666)">
<rect width="26" height="27" fill="white"/>
<path d="M1.48987 23.4952C1.43435 23.4396 1.40668 23.4116 1.35116 23.356C0.713343 23.9413 0.0200099 24.9167 1.07375 25.9479C2.12766 27.007 3.09823 26.2823 3.68073 25.6413C3.59755 25.5855 3.51436 25.5299 3.45884 25.4741L1.48987 23.4952Z" fill="black"/>
<path d="M22.6504 9.28075C22.7059 9.02995 22.6504 8.77917 22.484 8.61179L18.2408 4.34753C18.1021 4.20814 17.9357 4.15234 17.7694 4.15234C17.7138 4.15234 17.6585 4.15234 17.5751 4.18014L16.9373 4.34734L13.8034 7.49701L13.637 8.13799C13.5815 8.38878 13.637 8.63957 13.8034 8.80694L18.0466 13.0712C18.1853 13.2106 18.3517 13.2664 18.518 13.2664C18.5736 13.2664 18.6289 13.2664 18.7123 13.2386L19.3501 13.0714L22.4562 9.9499L22.6504 9.28075Z" fill="black"/>
<path d="M2.65544 22.3245C2.54459 22.2131 2.43355 22.1851 2.29485 22.1851C2.15614 22.1851 2.01743 22.2409 1.93425 22.3245L1.8234 22.4359C1.62918 22.631 1.62918 22.9655 1.8234 23.1604L3.79257 25.1394C3.90342 25.2508 4.01446 25.2788 4.15316 25.2788C4.29187 25.2788 4.43058 25.223 4.51376 25.1394L4.62461 25.028C4.81883 24.8328 4.81883 24.4984 4.62461 24.3034L2.65544 22.3245Z" fill="black"/>
<path d="M11.3913 6.91195C11.53 7.05134 11.724 7.16274 11.9459 7.19074L13.4434 7.24653L13.5266 7.16293L16.6052 4.04124L16.6884 3.95764L16.6328 2.45271C16.6052 2.22971 16.4941 2.06252 16.3554 1.89534L16.1335 1.67234C15.9673 1.50495 15.7176 1.39355 15.4404 1.39355H14.9689C14.6915 1.39355 14.442 1.50495 14.2479 1.70015L12.7224 3.2331L11.1693 4.79382C10.9751 4.98901 10.8643 5.2398 10.8643 5.51842V5.9922C10.8643 6.27099 10.9751 6.5218 11.1693 6.71679L11.3913 6.91195Z" fill="black"/>
<path d="M25.1464 10.7304L24.9245 10.5074C24.7858 10.368 24.5918 10.2566 24.3699 10.2286L22.8169 10.1729L22.7892 10.2007L19.6829 13.3781L19.6553 13.4059L19.7108 14.9667C19.7385 15.1897 19.8495 15.3569 19.9882 15.524L20.2101 15.747C20.4043 15.9422 20.6539 16.0536 20.9311 16.0536H21.4026C21.68 16.0536 21.9295 15.9422 22.1236 15.747L25.202 12.6534C25.3962 12.4582 25.5071 12.2074 25.5071 11.9288V11.455C25.4515 11.2042 25.3405 10.9254 25.1465 10.7304L25.1464 10.7304Z" fill="black"/>
<path d="M4.713 23.7636L3.24219 22.2855L5.88958 19.625L7.36039 21.1031L4.713 23.7636Z" fill="black"/>
<path d="M14.6911 10.3398L6.89803 18.1716L6.78718 18.0602C6.704 17.9766 6.62081 17.9488 6.53763 17.9488C6.45444 17.9488 6.37126 17.9766 6.31574 18.0324L5.87196 18.4784C5.76111 18.5898 5.76111 18.8128 5.89962 18.9521L8.03494 21.0981C8.11813 21.1817 8.20131 21.2095 8.2845 21.2095C8.36768 21.2095 8.45087 21.1817 8.50639 21.1259L8.95017 20.6799C9.06102 20.5685 9.06102 20.3455 8.9225 20.2061L8.81165 20.0947L16.6047 12.263L14.6911 10.3398ZM12.2505 15.1335C12.1118 15.2728 11.9178 15.2728 11.7791 15.1335C11.6404 14.9941 11.6404 14.7991 11.7791 14.6597C11.9178 14.5203 12.1118 14.5203 12.2505 14.6597C12.3892 14.7991 12.3892 14.9943 12.2505 15.1335ZM13.6095 13.7679C13.4708 13.9073 13.2768 13.9073 13.1381 13.7679C12.9994 13.6285 12.9994 13.4335 13.1381 13.2941C13.2768 13.1547 13.4708 13.1547 13.6095 13.2941C13.7482 13.4335 13.7482 13.6285 13.6095 13.7679ZM14.4969 12.4021C14.3582 12.2628 14.3582 12.0678 14.4969 11.9284C14.6356 11.789 14.8296 11.789 14.9683 11.9284C15.107 12.0678 15.107 12.2628 14.9683 12.4021C14.8298 12.5137 14.6356 12.5137 14.4969 12.4021Z" fill="black"/>
<path d="M22.041 6.77245C22.2629 6.54945 22.2629 6.15929 22.0133 5.9085L20.9872 4.87732C20.8485 4.73793 20.6821 4.68213 20.5158 4.68213C20.3771 4.68213 20.2384 4.73793 20.1275 4.84932L19.7393 5.23951L21.6529 7.16266L22.041 6.77245Z" fill="black"/>
</g>
<defs>
<clipPath id="clip0_337_183666">
<rect width="26" height="27" fill="white"/>
</clipPath>
</defs>
</svg>
