<svg width="214" height="142" viewBox="0 0 214 142" fill="none" xmlns="http://www.w3.org/2000/svg">
<g filter="url(#filter0_d_198_5020)">
<circle cx="107" cy="37" r="37" fill="white"/>
</g>
<g filter="url(#filter1_d_198_5020)">
<path d="M123.124 57.128C122.044 57.128 121.024 56.948 120.064 56.588C119.104 56.228 118.228 55.784 117.436 55.256C116.668 54.752 115.744 54.08 114.664 53.24C113.488 52.328 112.492 51.62 111.676 51.116C110.884 50.612 110.068 50.276 109.228 50.108C108.34 50.3 107.476 50.396 106.636 50.396C104.212 50.396 102.148 49.832 100.444 48.704C98.74 47.576 97.456 45.992 96.592 43.952C95.728 41.888 95.296 39.5 95.296 36.788C95.296 34.028 95.812 31.604 96.844 29.516C97.9 27.428 99.34 25.82 101.164 24.692C102.988 23.54 105.052 22.964 107.356 22.964C111.1 22.964 113.956 24.152 115.924 26.528C117.892 28.88 118.876 32.144 118.876 36.32C118.876 39.416 118.228 42.092 116.932 44.348C115.66 46.604 113.932 48.248 111.748 49.28C112.828 49.376 113.872 49.64 114.88 50.072C115.888 50.504 117.076 51.116 118.444 51.908C119.956 52.724 121.18 53.324 122.116 53.708C123.052 54.092 124.012 54.284 124.996 54.284C125.404 54.284 125.776 54.26 126.112 54.212L126.544 55.76C126.112 56.216 125.596 56.552 124.996 56.768C124.396 57.008 123.772 57.128 123.124 57.128ZM107.032 48.488C109.36 48.488 111.196 47.456 112.54 45.392C113.884 43.304 114.556 40.292 114.556 36.356C114.556 32.732 113.908 29.912 112.612 27.896C111.316 25.856 109.492 24.836 107.14 24.836C104.812 24.836 102.964 25.844 101.596 27.86C100.252 29.876 99.58 32.852 99.58 36.788C99.58 40.388 100.228 43.244 101.524 45.356C102.844 47.444 104.68 48.488 107.032 48.488Z" fill="black"/>
</g>
<path d="M9.28 112.92L3.776 113.112L2.656 119.8H0.544L1.088 111.224H21.024L21.408 119.8H19.392L18.336 113.112L12.8 112.92V133.112L17.344 133.432V135H5.12V133.432L9.28 133.112V112.92ZM25.6442 111.128L22.9562 110.776V109.4L28.1722 108.792H28.2362L28.9402 109.272V116.696L28.8123 119.416C29.4949 118.797 30.4336 118.211 31.6283 117.656C32.8229 117.101 34.0283 116.824 35.2443 116.824C36.5883 116.824 37.6336 117.08 38.3802 117.592C39.1269 118.104 39.6496 118.893 39.9482 119.96C40.2469 121.005 40.3962 122.424 40.3962 124.216V133.144L42.6363 133.432V135H34.9883V133.432L37.0683 133.144V124.184C37.0683 122.925 36.9829 121.944 36.8123 121.24C36.6416 120.515 36.3216 119.981 35.8523 119.64C35.3829 119.277 34.6789 119.096 33.7403 119.096C32.9723 119.096 32.1509 119.288 31.2762 119.672C30.4016 120.056 29.6336 120.504 28.9722 121.016V133.144L31.1803 133.432V135H23.7242V133.432L25.6442 133.176V111.128ZM53.202 135.352C50.6207 135.352 48.6473 134.509 47.282 132.824C45.938 131.139 45.266 128.888 45.266 126.072C45.266 124.216 45.618 122.584 46.322 121.176C47.026 119.768 48.0073 118.68 49.266 117.912C50.546 117.144 51.9967 116.76 53.618 116.76C55.602 116.76 57.138 117.315 58.226 118.424C59.3353 119.512 59.922 121.08 59.986 123.128C59.986 124.429 59.9113 125.421 59.762 126.104H48.754C48.7967 128.216 49.2873 129.923 50.226 131.224C51.1647 132.504 52.498 133.144 54.226 133.144C55.0793 133.144 55.9647 132.995 56.882 132.696C57.8207 132.376 58.546 132.003 59.058 131.576L59.666 132.984C59.0473 133.624 58.13 134.179 56.914 134.648C55.698 135.117 54.4607 135.352 53.202 135.352ZM56.466 124.408C56.53 123.96 56.562 123.501 56.562 123.032C56.5407 121.645 56.242 120.557 55.666 119.768C55.1113 118.957 54.226 118.552 53.01 118.552C51.7727 118.552 50.7807 119 50.034 119.896C49.3087 120.792 48.8927 122.296 48.786 124.408H56.466ZM95.418 141.336C94.458 141.336 93.5513 141.176 92.698 140.856C91.8447 140.536 91.066 140.141 90.362 139.672C89.6793 139.224 88.858 138.627 87.898 137.88C86.8527 137.069 85.9673 136.44 85.242 135.992C84.538 135.544 83.8127 135.245 83.066 135.096C82.2767 135.267 81.5087 135.352 80.762 135.352C78.6073 135.352 76.7727 134.851 75.258 133.848C73.7433 132.845 72.602 131.437 71.834 129.624C71.066 127.789 70.682 125.667 70.682 123.256C70.682 120.803 71.1407 118.648 72.058 116.792C72.9967 114.936 74.2767 113.507 75.898 112.504C77.5193 111.48 79.354 110.968 81.402 110.968C84.73 110.968 87.2687 112.024 89.018 114.136C90.7673 116.227 91.642 119.128 91.642 122.84C91.642 125.592 91.066 127.971 89.914 129.976C88.7833 131.981 87.2473 133.443 85.306 134.36C86.266 134.445 87.194 134.68 88.09 135.064C88.986 135.448 90.042 135.992 91.258 136.696C92.602 137.421 93.69 137.955 94.522 138.296C95.354 138.637 96.2073 138.808 97.082 138.808C97.4447 138.808 97.7753 138.787 98.074 138.744L98.458 140.12C98.074 140.525 97.6153 140.824 97.082 141.016C96.5487 141.229 95.994 141.336 95.418 141.336ZM81.114 133.656C83.1833 133.656 84.8153 132.739 86.01 130.904C87.2047 129.048 87.802 126.371 87.802 122.872C87.802 119.651 87.226 117.144 86.074 115.352C84.922 113.539 83.3007 112.632 81.21 112.632C79.1407 112.632 77.498 113.528 76.282 115.32C75.0873 117.112 74.49 119.757 74.49 123.256C74.49 126.456 75.066 128.995 76.218 130.872C77.3913 132.728 79.0233 133.656 81.114 133.656ZM109.1 135.288C108.503 135.288 108.055 135.171 107.756 134.936C107.479 134.701 107.34 134.317 107.34 133.784V132.696C106.636 133.4 105.751 134.019 104.684 134.552C103.639 135.085 102.583 135.352 101.516 135.352C99.532 135.352 98.124 134.819 97.292 133.752C96.46 132.685 96.044 130.925 96.044 128.472V119.192L94.252 118.68V117.272L98.732 116.856H98.764L99.372 117.24V128.216C99.372 129.453 99.4573 130.424 99.628 131.128C99.82 131.811 100.14 132.323 100.588 132.664C101.057 132.984 101.729 133.144 102.604 133.144C103.457 133.144 104.257 132.963 105.004 132.6C105.751 132.237 106.401 131.811 106.956 131.32V119.192L104.652 118.68V117.272L109.516 116.856H109.548L110.284 117.24V133.368H112.204L112.172 134.808C111.575 134.957 111.052 135.075 110.604 135.16C110.177 135.245 109.676 135.288 109.1 135.288ZM122.951 135.352C120.369 135.352 118.396 134.509 117.031 132.824C115.687 131.139 115.015 128.888 115.015 126.072C115.015 124.216 115.367 122.584 116.071 121.176C116.775 119.768 117.756 118.68 119.015 117.912C120.295 117.144 121.745 116.76 123.367 116.76C125.351 116.76 126.887 117.315 127.975 118.424C129.084 119.512 129.671 121.08 129.735 123.128C129.735 124.429 129.66 125.421 129.511 126.104H118.503C118.545 128.216 119.036 129.923 119.975 131.224C120.913 132.504 122.247 133.144 123.975 133.144C124.828 133.144 125.713 132.995 126.631 132.696C127.569 132.376 128.295 132.003 128.807 131.576L129.415 132.984C128.796 133.624 127.879 134.179 126.663 134.648C125.447 135.117 124.209 135.352 122.951 135.352ZM126.215 124.408C126.279 123.96 126.311 123.501 126.311 123.032C126.289 121.645 125.991 120.557 125.415 119.768C124.86 118.957 123.975 118.552 122.759 118.552C121.521 118.552 120.529 119 119.783 119.896C119.057 120.792 118.641 122.296 118.535 124.408H126.215ZM135.781 132.44C135.994 132.76 136.442 133.048 137.125 133.304C137.829 133.56 138.565 133.688 139.333 133.688C140.549 133.688 141.445 133.453 142.021 132.984C142.597 132.515 142.885 131.864 142.885 131.032C142.885 130.456 142.704 129.955 142.341 129.528C141.978 129.101 141.466 128.728 140.805 128.408C140.165 128.067 139.237 127.661 138.021 127.192C136.378 126.573 135.173 125.837 134.405 124.984C133.658 124.109 133.285 122.968 133.285 121.56C133.285 120.621 133.562 119.8 134.117 119.096C134.693 118.392 135.472 117.848 136.453 117.464C137.456 117.059 138.565 116.856 139.781 116.856C140.762 116.856 141.616 116.931 142.341 117.08C143.088 117.229 143.685 117.379 144.133 117.528C144.581 117.677 144.88 117.773 145.029 117.816V121.784H143.077L142.437 119.416C142.309 119.16 141.968 118.947 141.413 118.776C140.858 118.584 140.24 118.488 139.557 118.488C138.597 118.488 137.818 118.701 137.221 119.128C136.645 119.555 136.357 120.131 136.357 120.856C136.357 121.496 136.506 122.029 136.805 122.456C137.125 122.861 137.52 123.192 137.989 123.448C138.458 123.704 139.098 124.003 139.909 124.344L140.549 124.6C141.744 125.069 142.714 125.517 143.461 125.944C144.208 126.371 144.826 126.936 145.317 127.64C145.829 128.323 146.085 129.165 146.085 130.168C146.085 131.747 145.466 133.005 144.229 133.944C143.013 134.883 141.338 135.352 139.205 135.352C138.16 135.352 137.061 135.213 135.909 134.936C134.778 134.637 133.85 134.339 133.125 134.04V129.944H135.205L135.781 132.44ZM154.753 135.32C153.537 135.32 152.631 135.043 152.033 134.488C151.436 133.933 151.137 132.984 151.137 131.64V119.352H148.833V117.912C148.94 117.891 149.239 117.816 149.729 117.688C150.22 117.56 150.551 117.443 150.721 117.336C151.063 117.144 151.329 116.76 151.521 116.184C151.692 115.779 151.895 115.128 152.129 114.232C152.364 113.336 152.503 112.803 152.545 112.632H154.433L154.497 117.24H159.841V119.352H154.497V129.176C154.497 130.392 154.529 131.245 154.593 131.736C154.679 132.227 154.839 132.547 155.073 132.696C155.329 132.845 155.756 132.92 156.353 132.92C156.929 132.92 157.559 132.845 158.241 132.696C158.945 132.547 159.489 132.387 159.873 132.216L160.353 133.656C159.841 134.04 159.009 134.413 157.857 134.776C156.727 135.139 155.692 135.32 154.753 135.32ZM166.409 114.04C165.726 114.04 165.214 113.848 164.873 113.464C164.531 113.08 164.361 112.589 164.361 111.992C164.361 111.309 164.563 110.744 164.969 110.296C165.395 109.848 165.971 109.624 166.697 109.624C167.422 109.624 167.955 109.816 168.297 110.2C168.638 110.584 168.809 111.075 168.809 111.672C168.809 112.397 168.595 112.973 168.169 113.4C167.763 113.827 167.187 114.04 166.441 114.04H166.409ZM165.129 119.704L162.697 119.128V117.432L167.657 116.824H167.721L168.457 117.4V133.176L171.017 133.432V135H162.537V133.432L165.129 133.144V119.704ZM173.609 126.072C173.609 124.152 174.003 122.488 174.793 121.08C175.582 119.672 176.617 118.605 177.897 117.88C179.198 117.133 180.585 116.76 182.057 116.76C184.745 116.76 186.761 117.613 188.105 119.32C189.47 121.027 190.153 123.267 190.153 126.04C190.153 127.981 189.758 129.656 188.969 131.064C188.179 132.472 187.134 133.539 185.833 134.264C184.553 134.989 183.177 135.352 181.705 135.352C179.017 135.352 176.99 134.499 175.625 132.792C174.281 131.085 173.609 128.845 173.609 126.072ZM181.897 133.528C183.369 133.528 184.499 132.92 185.289 131.704C186.078 130.488 186.473 128.685 186.473 126.296C186.473 123.928 186.11 122.051 185.385 120.664C184.659 119.277 183.497 118.584 181.897 118.584C180.425 118.584 179.283 119.192 178.473 120.408C177.683 121.624 177.289 123.427 177.289 125.816C177.289 128.184 177.662 130.061 178.409 131.448C179.155 132.835 180.318 133.528 181.897 133.528ZM195.318 119.704L193.014 119.128V117.4L197.59 116.824H197.686L198.358 117.4V118.744L198.326 119.512C199.094 118.829 200.107 118.211 201.366 117.656C202.624 117.101 203.83 116.824 204.982 116.824C206.326 116.824 207.36 117.08 208.086 117.592C208.832 118.104 209.355 118.893 209.654 119.96C209.952 121.005 210.102 122.424 210.102 124.216V133.176L212.342 133.4V135H204.758V133.432L206.742 133.176V124.184C206.742 122.925 206.656 121.944 206.486 121.24C206.315 120.515 205.995 119.981 205.526 119.64C205.056 119.277 204.374 119.096 203.478 119.096C202.71 119.096 201.888 119.288 201.014 119.672C200.139 120.056 199.36 120.504 198.678 121.016V133.144L200.854 133.432V135H193.302V133.432L195.318 133.144V119.704Z" fill="white"/>
<defs>
<filter id="filter0_d_198_5020" x="66" y="0" width="82" height="82" filterUnits="userSpaceOnUse" color-interpolation-filters="sRGB">
<feFlood flood-opacity="0" result="BackgroundImageFix"/>
<feColorMatrix in="SourceAlpha" type="matrix" values="0 0 0 0 0 0 0 0 0 0 0 0 0 0 0 0 0 0 127 0" result="hardAlpha"/>
<feOffset dy="4"/>
<feGaussianBlur stdDeviation="2"/>
<feComposite in2="hardAlpha" operator="out"/>
<feColorMatrix type="matrix" values="0 0 0 0 1 0 0 0 0 1 0 0 0 0 1 0 0 0 0.25 0"/>
<feBlend mode="normal" in2="BackgroundImageFix" result="effect1_dropShadow_198_5020"/>
<feBlend mode="normal" in="SourceGraphic" in2="effect1_dropShadow_198_5020" result="shape"/>
</filter>
<filter id="filter1_d_198_5020" x="95.2959" y="22.9641" width="39.248" height="42.1638" filterUnits="userSpaceOnUse" color-interpolation-filters="sRGB">
<feFlood flood-opacity="0" result="BackgroundImageFix"/>
<feColorMatrix in="SourceAlpha" type="matrix" values="0 0 0 0 0 0 0 0 0 0 0 0 0 0 0 0 0 0 127 0" result="hardAlpha"/>
<feOffset dx="4" dy="4"/>
<feGaussianBlur stdDeviation="2"/>
<feComposite in2="hardAlpha" operator="out"/>
<feColorMatrix type="matrix" values="0 0 0 0 0 0 0 0 0 0 0 0 0 0 0 0 0 0 0.25 0"/>
<feBlend mode="normal" in2="BackgroundImageFix" result="effect1_dropShadow_198_5020"/>
<feBlend mode="normal" in="SourceGraphic" in2="effect1_dropShadow_198_5020" result="shape"/>
</filter>
</defs>
</svg>
