<svg width="40" height="40" viewBox="0 0 40 40" fill="none" xmlns="http://www.w3.org/2000/svg">
<circle cx="20" cy="20" r="20" fill="white"/>
<line x1="8.35355" y1="28.6464" x2="10.3536" y2="30.6464" stroke="black"/>
<line x1="8.67319" y1="28.6216" x2="30.6732" y2="9.62159" stroke="black"/>
<line x1="10.0071" y1="30.0457" x2="31.6662" y2="10.628" stroke="black"/>
<line x1="31.6464" y1="10.3536" x2="30.6464" y2="9.35355" stroke="black"/>
<line x1="21.3536" y1="17.6464" x2="22.3536" y2="18.6464" stroke="black"/>
<path d="M22.6152 17.6574C22.8332 17.4791 23.1587 17.339 23.4195 17.2451C23.6546 17.1605 23.7702 16.926 23.9805 16.8058C24.1276 16.7218 24.2994 16.481 24.4097 16.3462C24.4924 16.2452 24.5474 16.131 24.6531 16.0488C24.7653 15.9615 24.4336 16.2191 24.3658 16.2448C24.2005 16.3075 23.9172 16.3825 23.7845 16.5152C23.7295 16.5702 23.6992 16.6764 23.6629 16.745C23.6561 16.7577 24.1587 16.2887 24.3185 16.1738C24.7095 15.8928 25.0468 15.6516 25.3864 15.3121C25.5962 15.1023 25.8489 14.9712 26.0555 14.7646C26.7981 14.022 27.6542 13.5185 28.3637 12.7301C28.7273 12.3261 29.3335 12.2202 29.6716 11.8042C29.9207 11.4975 30.2364 11.3302 30.5232 11.0843C30.7091 10.925 30.7901 10.76 30.949 10.6011" stroke="black" stroke-linecap="round"/>
<path d="M30.2334 10.7031C29.985 10.8862 29.6396 10.9355 29.4364 11.1839C29.3515 11.2876 29.2857 11.4031 29.2049 11.5084C29.1532 11.5759 29.0551 11.6442 29.0283 11.7245" stroke="black" stroke-linecap="round"/>
<path d="M31.2295 10.5206C31.3395 10.5101 31.4371 10.4854 31.5467 10.4854" stroke="black" stroke-linecap="round"/>
<path d="M4.25223 20.1453L5.18566 21.259L6.53323 20.7154L5.76255 21.9472L6.69597 23.0609L5.28624 22.7086L4.51556 23.9404L4.41498 22.4908L3.00524 22.1386L4.35281 21.5949L4.25223 20.1453Z" fill="black"/>
<path d="M16.8548 7.74788L17.7882 8.86151L19.1358 8.3179L18.3651 9.54977L19.2985 10.6634L17.8888 10.3111L17.1181 11.543L17.0175 10.0934L15.6078 9.74109L16.9554 9.19748L16.8548 7.74788Z" fill="black"/>
<path d="M22.8548 26.7479L23.7882 27.8615L25.1358 27.3179L24.3651 28.5498L25.2985 29.6634L23.8888 29.3111L23.1181 30.543L23.0175 29.0934L21.6078 28.7411L22.9554 28.1975L22.8548 26.7479Z" fill="black"/>
<path d="M15.8548 32.7479L16.7882 33.8615L18.1358 33.3179L17.3651 34.5498L18.2985 35.6634L16.8888 35.3111L16.1181 36.543L16.0175 35.0934L14.6078 34.7411L15.9554 34.1975L15.8548 32.7479Z" fill="black"/>
</svg>
