<svg width="26" height="25" viewBox="0 0 26 25" fill="none" xmlns="http://www.w3.org/2000/svg">
<path d="M13.2612 7.9668C10.5746 11.909 1.48622 19.2969 1.48622 19.2969C0.657495 20.7028 0 24.4244 0 24.4244L15.176 9.78623L13.2612 7.9668Z" fill="black"/>
<path d="M0.371094 24.8106C0.371094 24.8106 4.22951 24.1766 5.68699 23.3771C5.68699 23.3771 13.375 14.6107 17.462 12.0194L15.5471 10.1724L0.371094 24.8106Z" fill="black"/>
<path d="M15.519 6.06494C14.833 6.06494 14.2042 6.25801 13.7756 6.47837C13.347 6.67144 13.2613 7.22274 13.6042 7.52597L17.9484 11.7162C18.0913 11.8541 18.2628 11.9093 18.4342 11.9093C18.6629 11.9093 18.8915 11.7991 19.0058 11.6061C19.5773 10.7238 20.2061 9.06987 18.3485 7.30562C17.3481 6.36819 16.3479 6.06494 15.519 6.06494Z" fill="black"/>
<path d="M20.8065 2.75684C20.7778 2.75684 20.7778 2.75684 20.8065 2.75684L17.377 6.06485C17.8343 6.28542 18.2629 6.61615 18.663 7.00209C19.0059 7.33284 19.2633 7.66375 19.4917 7.99451L22.8356 4.74168C22.8356 4.74168 22.8928 4.08001 22.1783 3.4185C21.5495 2.7843 20.9495 2.75684 20.8065 2.75684Z" fill="black"/>
<path d="M24.921 0.661687C24.0064 -0.220562 22.5489 -0.220562 21.6629 0.661687C21.1771 1.13031 20.9769 1.73681 21.0056 2.31582C21.32 2.34332 21.9203 2.50888 22.5204 3.0877C23.0634 3.61153 23.2349 4.13531 23.2921 4.46606C23.8924 4.46606 24.4924 4.2455 24.9497 3.8044C25.8354 2.92215 25.8354 1.51632 24.921 0.661736L24.921 0.661687Z" fill="black"/>
</svg>
