<svg width="19" height="22" viewBox="0 0 19 22" fill="none" xmlns="http://www.w3.org/2000/svg">
<path d="M2.375 19.4857H5.9375V11.9429H13.0625V19.4857H16.625V8.17143L9.5 2.51429L2.375 8.17143V19.4857ZM2.375 22C1.72187 22 1.16296 21.754 0.69825 21.2621C0.23275 20.7693 0 20.1771 0 19.4857V8.17143C0 7.77333 0.0843123 7.39619 0.252937 7.04C0.420771 6.68381 0.653125 6.39048 0.95 6.16L8.075 0.502857C8.29271 0.335238 8.52031 0.209524 8.75781 0.125714C8.99531 0.0419046 9.24271 0 9.5 0C9.75729 0 10.0047 0.0419046 10.2422 0.125714C10.4797 0.209524 10.7073 0.335238 10.925 0.502857L18.05 6.16C18.3469 6.39048 18.5796 6.68381 18.7483 7.04C18.9161 7.39619 19 7.77333 19 8.17143V19.4857C19 20.1771 18.7676 20.7693 18.3029 21.2621C17.8374 21.754 17.2781 22 16.625 22H10.6875V14.4571H8.3125V22H2.375Z" fill="#000000"/>
</svg>
